<?xml version="1.0" ?><!DOCTYPE svg  PUBLIC '-//W3C//DTD SVG 1.1//EN'  'http://www.w3.org/Graphics/SVG/1.1/DTD/svg11.dtd'><svg height="2.82535in" style="shape-rendering:geometricPrecision; text-rendering:geometricPrecision; image-rendering:optimizeQuality; fill-rule:evenodd; clip-rule:evenodd" version="1.1" viewBox="0 0 2825 2825" width="2.82535in" xml:space="preserve" xmlns="http://www.w3.org/2000/svg" xmlns:xlink="http://www.w3.org/1999/xlink"><defs><style type="text/css">
   <![CDATA[
    .fil0 {fill:black;fill-rule:nonzero}
   ]]>
  </style></defs><g id="Layer_x0020_1"><path class="fil0" d="M1778 49c377,100 677,344 858,658l0 0c180,313 242,695 141,1071 -101,377 -345,677 -658,858l0 0c-313,180 -695,242 -1072,141 -376,-101 -677,-345 -857,-658l0 0c-181,-313 -242,-695 -141,-1072 100,-376 344,-677 658,-857l0 0c313,-181 695,-242 1071,-141zm798 692c-172,-297 -457,-529 -816,-625 -358,-96 -721,-38 -1019,134l0 0 0 0c-297,171 -529,457 -625,815 -96,358 -38,722 134,1019l0 0 0 0c171,298 457,530 815,626 358,96 722,38 1019,-134l0 0 0 0c298,-172 530,-457 626,-816 96,-358 38,-721 -134,-1019l0 0 0 0z"/><path class="fil0" d="M689 2102c0,-200 81,-381 212,-512 131,-131 312,-212 512,-212 19,0 34,15 34,35 0,200 -81,380 -212,511 -131,131 -311,212 -511,212 -19,0 -35,-15 -35,-34zm261 -463c-111,111 -182,260 -191,427 167,-9 317,-80 427,-191 111,-110 182,-260 191,-427 -166,9 -316,80 -427,191z"/><path class="fil0" d="M759 759c9,167 80,317 191,427 111,111 261,182 427,191 -9,-166 -80,-316 -191,-427 -110,-111 -260,-182 -427,-191zm142 476c-131,-131 -212,-311 -212,-511 0,-19 16,-35 35,-35 200,0 380,81 511,212 131,131 212,312 212,512 0,19 -15,34 -34,34 -200,0 -381,-81 -512,-212z"/><path class="fil0" d="M688 2066c-9,-167 -80,-316 -191,-427 -110,-111 -260,-182 -427,-191 9,167 81,317 191,427 111,111 261,182 427,191zm-142 -476c131,131 212,312 212,512 0,19 -15,34 -34,34 -200,0 -381,-81 -512,-212 -131,-131 -212,-311 -212,-511 0,-20 16,-35 35,-35 200,0 380,81 511,212z"/><path class="fil0" d="M758 724c0,200 -81,380 -212,511 -131,131 -311,212 -511,212 -19,0 -35,-15 -35,-34 0,-200 81,-381 212,-512 131,-131 312,-212 512,-212 19,0 34,16 34,35zm-261 462c111,-110 182,-260 191,-427 -166,9 -316,80 -427,191 -110,111 -182,261 -191,427 167,-9 317,-80 427,-191z"/><path class="fil0" d="M2066 2066c-9,-167 -80,-316 -191,-427 -110,-111 -260,-182 -427,-191 9,167 80,317 191,427 111,111 260,182 427,191zm-142 -476c131,131 212,312 212,512 0,19 -15,34 -34,34 -200,0 -381,-81 -512,-212 -131,-131 -212,-311 -212,-511 0,-20 15,-35 35,-35 200,0 380,81 511,212z"/><path class="fil0" d="M2136 724c0,200 -81,380 -212,511 -131,131 -311,212 -511,212 -20,0 -35,-15 -35,-34 0,-200 81,-381 212,-512 131,-131 312,-212 512,-212 19,0 34,16 34,35zm-261 462c111,-110 182,-260 191,-427 -167,9 -316,80 -427,191 -111,111 -182,261 -191,427 167,-9 317,-80 427,-191z"/><path class="fil0" d="M2067 2102c0,-200 81,-381 212,-512 131,-131 312,-212 512,-212 19,0 34,15 34,35 0,200 -81,380 -212,511 -131,131 -312,212 -511,212 -20,0 -35,-15 -35,-34zm261 -463c-111,111 -182,260 -191,427 167,-9 317,-80 427,-191 111,-110 182,-260 191,-427 -167,9 -316,80 -427,191z"/><path class="fil0" d="M2137 759c9,167 80,317 191,427 111,111 260,182 427,191 -9,-166 -80,-316 -191,-427 -110,-111 -260,-182 -427,-191zm142 476c-131,-131 -212,-311 -212,-511 0,-19 15,-35 35,-35 199,0 380,81 511,212 131,131 212,312 212,512 0,19 -15,34 -34,34 -200,0 -381,-81 -512,-212z"/><path class="fil0" d="M724 689c200,0 380,81 511,212 131,131 212,312 212,512 0,19 -15,34 -34,34 -200,0 -381,-81 -512,-212 -131,-131 -212,-311 -212,-511 0,-19 16,-35 35,-35zm462 261c-110,-111 -260,-182 -427,-191 9,167 80,317 191,427 111,111 261,182 427,191 -9,-166 -80,-316 -191,-427z"/><path class="fil0" d="M2066 759c-167,9 -316,80 -427,191 -111,111 -182,261 -191,427 167,-9 317,-80 427,-191 111,-110 182,-260 191,-427zm-476 142c131,-131 312,-212 512,-212 19,0 34,16 34,35 0,200 -81,380 -212,511 -131,131 -311,212 -511,212 -20,0 -35,-15 -35,-34 0,-200 81,-381 212,-512z"/><path class="fil0" d="M759 688c167,-9 317,-80 427,-191 111,-110 182,-260 191,-427 -166,9 -316,81 -427,191 -111,111 -182,261 -191,427zm476 -142c-131,131 -311,212 -511,212 -19,0 -35,-15 -35,-34 0,-200 81,-381 212,-512 131,-131 312,-212 512,-212 19,0 34,16 34,35 0,200 -81,380 -212,511z"/><path class="fil0" d="M2102 758c-200,0 -381,-81 -512,-212 -131,-131 -212,-311 -212,-511 0,-19 15,-35 35,-35 200,0 380,81 511,212 131,131 212,312 212,512 0,19 -15,34 -34,34zm-463 -261c111,111 260,182 427,191 -9,-166 -80,-316 -191,-427 -110,-110 -260,-182 -427,-191 9,167 80,317 191,427z"/><path class="fil0" d="M759 2066c167,-9 317,-80 427,-191 111,-110 182,-260 191,-427 -166,9 -316,80 -427,191 -111,111 -182,260 -191,427zm476 -142c-131,131 -311,212 -511,212 -19,0 -35,-15 -35,-34 0,-200 81,-381 212,-512 131,-131 312,-212 512,-212 19,0 34,15 34,35 0,200 -81,380 -212,511z"/><path class="fil0" d="M2102 2136c-200,0 -381,-81 -512,-212 -131,-131 -212,-311 -212,-511 0,-20 15,-35 35,-35 200,0 380,81 511,212 131,131 212,312 212,512 0,19 -15,34 -34,34zm-463 -261c111,111 260,182 427,191 -9,-167 -80,-316 -191,-427 -110,-111 -260,-182 -427,-191 9,167 80,317 191,427z"/><path class="fil0" d="M724 2067c200,0 380,81 511,212 131,131 212,312 212,512 0,19 -15,34 -34,34 -200,0 -381,-81 -512,-212 -131,-131 -212,-312 -212,-511 0,-20 16,-35 35,-35zm462 261c-110,-111 -260,-182 -427,-191 9,167 80,317 191,427 111,111 261,182 427,191 -9,-167 -80,-316 -191,-427z"/><path class="fil0" d="M2066 2137c-167,9 -316,80 -427,191 -111,111 -182,260 -191,427 167,-9 317,-80 427,-191 111,-110 182,-260 191,-427zm-476 142c131,-131 312,-212 512,-212 19,0 34,15 34,35 0,199 -81,380 -212,511 -131,131 -311,212 -511,212 -20,0 -35,-15 -35,-34 0,-200 81,-381 212,-512z"/></g></svg>